<svg xmlns="http://www.w3.org/2000/svg" viewBox="0 9.470000267028809 273.0199890136719 36.37999725341797" data-asc="0.9052734375" width="273.0199890136719" height="36.37999725341797"><defs/><g fill="#000000"><g transform="translate(0, 0)"><path d="M0 37.52L4.35 36.84Q4.71 39.45 6.38 40.84Q8.06 42.24 11.06 42.24Q14.09 42.24 15.55 41.00Q17.02 39.77 17.02 38.11Q17.02 36.62 15.72 35.77Q14.82 35.18 11.23 34.28Q6.40 33.06 4.53 32.17Q2.66 31.27 1.70 29.70Q0.73 28.13 0.73 26.22Q0.73 24.49 1.53 23.01Q2.32 21.53 3.69 20.56Q4.71 19.80 6.48 19.27Q8.25 18.75 10.28 18.75Q13.33 18.75 15.64 19.63Q17.94 20.51 19.04 22.01Q20.14 23.51 20.56 26.03L16.26 26.61Q15.97 24.61 14.56 23.49Q13.16 22.36 10.60 22.36Q7.57 22.36 6.27 23.36Q4.98 24.37 4.98 25.71Q4.98 26.56 5.52 27.25Q6.05 27.95 7.20 28.42Q7.86 28.66 11.08 29.54Q15.75 30.79 17.59 31.58Q19.43 32.37 20.48 33.89Q21.53 35.40 21.53 37.65Q21.53 39.84 20.25 41.78Q18.97 43.73 16.55 44.79Q14.14 45.85 11.08 45.85Q6.03 45.85 3.38 43.75Q0.73 41.65 0 37.52ZM26.76 45.26L26.76 9.47L31.15 9.47L31.15 22.31Q34.23 18.75 38.92 18.75Q41.80 18.75 43.92 19.89Q46.04 21.02 46.96 23.02Q47.88 25.02 47.88 28.83L47.88 45.26L43.48 45.26L43.48 28.83Q43.48 25.54 42.05 24.04Q40.63 22.53 38.01 22.53Q36.06 22.53 34.34 23.55Q32.62 24.56 31.88 26.29Q31.15 28.03 31.15 31.08L31.15 45.26L26.76 45.26ZM54.59 14.53L54.59 9.47L58.98 9.47L58.98 14.53L54.59 14.53M54.59 45.26L54.59 19.34L58.98 19.34L58.98 45.26L54.59 45.26ZM65.67 45.26L65.67 19.34L69.63 19.34L69.63 23.02Q72.49 18.75 77.88 18.75Q80.22 18.75 82.19 19.59Q84.16 20.43 85.13 21.80Q86.11 23.17 86.50 25.05Q86.74 26.27 86.74 29.32L86.74 45.26L82.35 45.26L82.35 29.49Q82.35 26.81 81.84 25.48Q81.32 24.15 80.02 23.35Q78.71 22.56 76.95 22.56Q74.15 22.56 72.11 24.34Q70.07 26.12 70.07 31.10L70.07 45.26L65.67 45.26ZM91.85 32.30Q91.85 25.10 95.85 21.63Q99.19 18.75 104.00 18.75Q109.35 18.75 112.74 22.25Q116.14 25.76 116.14 31.93Q116.14 36.94 114.64 39.81Q113.13 42.68 110.27 44.26Q107.40 45.85 104.00 45.85Q98.56 45.85 95.20 42.36Q91.85 38.87 91.85 32.30M96.36 32.30Q96.36 37.28 98.54 39.76Q100.71 42.24 104.00 42.24Q107.28 42.24 109.45 39.75Q111.62 37.26 111.62 32.15Q111.62 27.34 109.44 24.87Q107.25 22.39 104.00 22.39Q100.71 22.39 98.54 24.85Q96.36 27.32 96.36 32.30ZM125.34 45.26L121.26 45.26L121.26 9.47L125.66 9.47L125.66 22.24Q128.44 18.75 132.76 18.75Q135.16 18.75 137.29 19.71Q139.43 20.68 140.81 22.42Q142.19 24.17 142.97 26.64Q143.75 29.10 143.75 31.91Q143.75 38.57 140.45 42.21Q137.16 45.85 132.54 45.85Q127.95 45.85 125.34 42.02L125.34 45.26M125.29 32.10Q125.29 36.77 126.56 38.84Q128.64 42.24 132.18 42.24Q135.06 42.24 137.16 39.73Q139.26 37.23 139.26 32.28Q139.26 27.20 137.24 24.78Q135.23 22.36 132.37 22.36Q129.49 22.36 127.39 24.87Q125.29 27.37 125.29 32.10ZM149.12 14.53L149.12 9.47L153.52 9.47L153.52 14.53L149.12 14.53M149.12 45.26L149.12 19.34L153.52 19.34L153.52 45.26L149.12 45.26ZM161.45 45.26L161.45 40.26L166.46 40.26L166.46 45.26L161.45 45.26ZM191.02 35.77L195.34 36.33Q194.63 40.80 191.71 43.32Q188.79 45.85 184.55 45.85Q179.22 45.85 175.99 42.37Q172.75 38.89 172.75 32.40Q172.75 28.20 174.15 25.05Q175.54 21.90 178.38 20.32Q181.23 18.75 184.57 18.75Q188.79 18.75 191.48 20.89Q194.17 23.02 194.92 26.95L190.65 27.61Q190.04 25 188.49 23.68Q186.94 22.36 184.74 22.36Q181.42 22.36 179.35 24.74Q177.27 27.12 177.27 32.28Q177.27 37.50 179.27 39.87Q181.27 42.24 184.50 42.24Q187.08 42.24 188.82 40.65Q190.55 39.06 191.02 35.77ZM216.02 42.07Q213.57 44.14 211.32 45.00Q209.06 45.85 206.47 45.85Q202.20 45.85 199.90 43.76Q197.61 41.67 197.61 38.43Q197.61 36.52 198.47 34.95Q199.34 33.37 200.74 32.42Q202.15 31.47 203.91 30.98Q205.20 30.64 207.81 30.32Q213.13 29.69 215.65 28.81Q215.67 27.91 215.67 27.66Q215.67 24.98 214.43 23.88Q212.74 22.39 209.42 22.39Q206.32 22.39 204.85 23.47Q203.37 24.56 202.66 27.32L198.36 26.73Q198.95 23.97 200.29 22.28Q201.64 20.58 204.17 19.67Q206.71 18.75 210.06 18.75Q213.38 18.75 215.45 19.53Q217.53 20.31 218.51 21.50Q219.48 22.68 219.87 24.49Q220.09 25.61 220.09 28.54L220.09 34.40Q220.09 40.53 220.37 42.15Q220.65 43.77 221.48 45.26L216.89 45.26Q216.21 43.90 216.02 42.07M215.65 32.25Q213.26 33.23 208.47 33.91Q205.76 34.30 204.64 34.79Q203.52 35.28 202.91 36.22Q202.29 37.16 202.29 38.31Q202.29 40.06 203.63 41.24Q204.96 42.41 207.52 42.41Q210.06 42.41 212.04 41.30Q214.01 40.19 214.94 38.26Q215.65 36.77 215.65 33.86L215.65 32.25ZM225.15 37.52L229.49 36.84Q229.86 39.45 231.53 40.84Q233.20 42.24 236.21 42.24Q239.23 42.24 240.70 41.00Q242.16 39.77 242.16 38.11Q242.16 36.62 240.87 35.77Q239.97 35.18 236.38 34.28Q231.54 33.06 229.68 32.17Q227.81 31.27 226.84 29.70Q225.88 28.13 225.88 26.22Q225.88 24.49 226.67 23.01Q227.47 21.53 228.83 20.56Q229.86 19.80 231.63 19.27Q233.40 18.75 235.42 18.75Q238.48 18.75 240.78 19.63Q243.09 20.51 244.19 22.01Q245.29 23.51 245.70 26.03L241.41 26.61Q241.11 24.61 239.71 23.49Q238.31 22.36 235.74 22.36Q232.71 22.36 231.42 23.36Q230.13 24.37 230.13 25.71Q230.13 26.56 230.66 27.25Q231.20 27.95 232.35 28.42Q233.01 28.66 236.23 29.54Q240.89 30.79 242.74 31.58Q244.58 32.37 245.63 33.89Q246.68 35.40 246.68 37.65Q246.68 39.84 245.40 41.78Q244.12 43.73 241.70 44.79Q239.28 45.85 236.23 45.85Q231.18 45.85 228.53 43.75Q225.88 41.65 225.15 37.52ZM251.90 45.26L251.90 9.47L256.30 9.47L256.30 22.31Q259.38 18.75 264.06 18.75Q266.94 18.75 269.07 19.89Q271.19 21.02 272.11 23.02Q273.02 25.02 273.02 28.83L273.02 45.26L268.63 45.26L268.63 28.83Q268.63 25.54 267.20 24.04Q265.77 22.53 263.16 22.53Q261.21 22.53 259.48 23.55Q257.76 24.56 257.03 26.29Q256.30 28.03 256.30 31.08L256.30 45.26L251.90 45.26Z"/></g></g></svg>